<?xml version="1.0" encoding="utf-8" ?>
<svg baseProfile="full" height="352px" version="1.1" viewBox="0 0 510 352" width="510px" xmlns="http://www.w3.org/2000/svg" xmlns:ev="http://www.w3.org/2001/xml-events" xmlns:xlink="http://www.w3.org/1999/xlink"><defs /><path d="M 70 323 L 71 322 L 78 322 L 82 324 L 124 324 L 128 322 L 132 322 L 134 325 L 138 327 L 138 330 L 135 332 L 135 333 L 137 334 L 136 347 L 134 350 L 3 350 L 2 349 L 2 328 L 8 323 L 11 323 L 12 324 L 63 324 L 64 323 L 69 323" fill="none" stroke="black" stroke-linecap="round" stroke-linejoin="round" stroke-width="1.0" /><path d="M 253 312 L 254 311 L 256 311 L 261 316 L 262 316 L 263 317 L 264 317 L 266 319 L 267 319 L 268 320 L 269 320 L 270 321 L 272 321 L 273 322 L 274 322 L 275 323 L 277 323 L 279 325 L 279 327 L 278 328 L 277 328 L 271 334 L 270 334 L 268 336 L 264 336 L 260 332 L 260 331 L 259 330 L 259 329 L 258 328 L 258 327 L 257 326 L 257 325 L 256 324 L 256 323 L 255 322 L 255 320 L 254 319 L 254 316 L 253 315 L 253 313" fill="none" stroke="black" stroke-linecap="round" stroke-linejoin="round" stroke-width="1.0" /><path d="M 245 312 L 246 311 L 248 311 L 249 312 L 249 315 L 248 316 L 248 318 L 247 319 L 247 321 L 246 322 L 246 323 L 245 324 L 245 325 L 244 326 L 244 327 L 243 328 L 243 330 L 242 331 L 242 332 L 240 334 L 240 335 L 238 337 L 235 337 L 234 336 L 233 336 L 225 328 L 225 325 L 226 324 L 227 324 L 228 323 L 229 323 L 230 322 L 231 322 L 232 321 L 233 321 L 235 319 L 236 319 L 237 318 L 238 318 L 241 315 L 242 315 L 244 313" fill="none" stroke="black" stroke-linecap="round" stroke-linejoin="round" stroke-width="1.0" /><path d="M 6 306 L 7 305 L 41 305 L 42 306 L 47 306 L 53 310 L 63 314 L 70 315 L 71 313 L 76 313 L 77 315 L 80 315 L 92 311 L 99 306 L 105 306 L 106 305 L 135 305 L 138 309 L 141 311 L 141 313 L 139 318 L 139 323 L 137 325 L 135 325 L 132 322 L 128 322 L 124 324 L 82 324 L 78 322 L 71 322 L 70 323 L 64 323 L 63 324 L 16 324 L 15 323 L 12 324 L 11 323 L 8 323 L 6 324 L 5 326 L 3 326 L 2 325 L 2 308 L 5 307" fill="none" stroke="black" stroke-linecap="round" stroke-linejoin="round" stroke-width="1.0" /><path d="M 248 304 L 249 303 L 256 303 L 257 304 L 259 304 L 260 305 L 262 305 L 263 306 L 264 306 L 265 307 L 268 308 L 270 310 L 271 310 L 273 312 L 274 312 L 276 314 L 277 314 L 285 322 L 285 324 L 284 325 L 280 325 L 277 323 L 275 323 L 272 321 L 270 321 L 269 320 L 268 320 L 266 318 L 265 318 L 263 316 L 262 316 L 255 309 L 253 309 L 252 308 L 249 310 L 247 310 L 245 312 L 244 312 L 241 315 L 240 315 L 237 318 L 236 318 L 231 322 L 230 322 L 227 324 L 225 324 L 223 326 L 219 326 L 218 325 L 218 323 L 227 315 L 228 315 L 230 313 L 233 312 L 235 310 L 236 310 L 237 309 L 238 309 L 239 308 L 240 308 L 243 306 L 245 306 L 246 305 L 247 305" fill="none" stroke="black" stroke-linecap="round" stroke-linejoin="round" stroke-width="1.0" /><path d="M 367 290 L 368 289 L 502 289 L 508 293 L 508 349 L 507 350 L 366 350 L 364 340 L 366 338 L 363 337 L 363 335 L 365 333 L 363 332 L 364 328 L 361 326 L 359 306 L 358 305 L 358 293 L 366 290" fill="none" stroke="black" stroke-linecap="round" stroke-linejoin="round" stroke-width="1.0" /><path d="M 118 290 L 119 289 L 132 289 L 133 290 L 142 290 L 144 292 L 145 292 L 146 293 L 146 295 L 145 296 L 145 297 L 144 298 L 144 302 L 143 303 L 143 305 L 142 306 L 142 308 L 141 309 L 139 309 L 137 307 L 137 306 L 136 305 L 105 305 L 104 304 L 104 302 L 107 299 L 106 298 L 106 296 L 108 294 L 111 294 L 111 292 L 112 291 L 113 291 L 114 290 L 117 290" fill="none" stroke="black" stroke-linecap="round" stroke-linejoin="round" stroke-width="1.0" /><path d="M 6 290 L 7 289 L 27 289 L 28 290 L 34 290 L 35 291 L 35 293 L 38 293 L 39 294 L 39 296 L 38 297 L 43 302 L 43 304 L 42 305 L 7 305 L 6 306 L 3 306 L 2 305 L 2 292 L 3 291 L 5 291" fill="none" stroke="black" stroke-linecap="round" stroke-linejoin="round" stroke-width="1.0" /><path d="M 277 282 L 278 281 L 280 281 L 281 282 L 285 282 L 286 283 L 287 283 L 291 287 L 291 288 L 292 289 L 292 290 L 293 291 L 293 300 L 292 301 L 292 305 L 291 306 L 291 311 L 290 312 L 290 314 L 289 315 L 289 318 L 288 319 L 288 320 L 287 321 L 285 321 L 278 314 L 277 314 L 276 313 L 275 313 L 273 311 L 272 311 L 269 308 L 267 308 L 266 307 L 265 307 L 264 306 L 263 306 L 262 305 L 260 305 L 259 304 L 257 304 L 255 302 L 255 299 L 256 298 L 256 292 L 258 290 L 259 290 L 260 289 L 261 289 L 262 288 L 264 288 L 266 286 L 268 286 L 269 285 L 270 285 L 271 284 L 272 284 L 273 283 L 275 283 L 276 282" fill="none" stroke="black" stroke-linecap="round" stroke-linejoin="round" stroke-width="1.0" /><path d="M 212 282 L 213 281 L 216 281 L 217 282 L 218 282 L 219 283 L 221 283 L 224 285 L 226 285 L 227 286 L 229 286 L 230 287 L 232 287 L 233 288 L 235 288 L 236 289 L 238 289 L 239 290 L 241 290 L 242 291 L 245 291 L 246 292 L 252 292 L 253 293 L 253 295 L 254 296 L 254 299 L 252 302 L 249 302 L 248 301 L 248 303 L 246 305 L 245 305 L 244 306 L 243 306 L 240 308 L 238 308 L 236 310 L 235 310 L 234 311 L 233 311 L 232 312 L 231 312 L 229 314 L 228 314 L 227 315 L 226 315 L 221 320 L 220 320 L 216 324 L 214 324 L 213 323 L 213 321 L 212 320 L 212 317 L 211 316 L 211 313 L 210 312 L 210 307 L 209 306 L 209 300 L 208 299 L 208 297 L 209 296 L 210 296 L 210 295 L 208 292 L 208 288 L 210 286 L 210 285 L 212 283" fill="none" stroke="black" stroke-linecap="round" stroke-linejoin="round" stroke-width="1.0" /><path d="M 197 281 L 198 280 L 203 280 L 204 281 L 204 284 L 205 285 L 205 286 L 206 287 L 206 291 L 205 292 L 203 292 L 201 290 L 201 289 L 199 287 L 199 286 L 198 285 L 198 284 L 197 283 L 197 282" fill="none" stroke="black" stroke-linecap="round" stroke-linejoin="round" stroke-width="1.0" /><path d="M 212 277 L 213 276 L 215 276 L 216 277 L 218 277 L 219 278 L 220 278 L 221 279 L 223 279 L 224 280 L 226 280 L 227 281 L 229 281 L 230 282 L 232 282 L 233 283 L 235 283 L 236 284 L 238 284 L 239 285 L 241 285 L 242 286 L 244 286 L 245 287 L 246 287 L 247 288 L 247 290 L 246 291 L 242 291 L 241 290 L 239 290 L 238 289 L 236 289 L 235 288 L 233 288 L 232 287 L 230 287 L 229 286 L 227 286 L 226 285 L 224 285 L 223 284 L 222 284 L 221 283 L 219 283 L 218 282 L 217 282 L 216 281 L 214 281 L 212 279 L 212 278" fill="none" stroke="black" stroke-linecap="round" stroke-linejoin="round" stroke-width="1.0" /><path d="M 356 273 L 357 272 L 359 272 L 361 274 L 361 288 L 360 289 L 358 289 L 357 288 L 357 286 L 356 285 L 356 279 L 355 278 L 355 274" fill="none" stroke="black" stroke-linecap="round" stroke-linejoin="round" stroke-width="1.0" /><path d="M 304 271 L 308 271 L 312 286 L 308 286 L 306 278 L 303 276 L 301 278 L 301 284 L 297 285 L 304 331 L 303 350 L 298 350 L 293 345 L 287 346 L 283 350 L 222 350 L 220 347 L 216 345 L 213 345 L 208 350 L 201 349 L 199 338 L 199 323 L 202 304 L 204 301 L 209 301 L 210 312 L 214 325 L 222 326 L 232 336 L 236 338 L 240 336 L 247 321 L 249 313 L 252 312 L 260 333 L 266 337 L 272 334 L 282 325 L 285 325 L 288 321 L 293 300 L 293 291 L 291 286 L 286 282 L 286 280 L 291 277 L 295 278 L 297 274 L 303 271" fill="none" stroke="black" stroke-linecap="round" stroke-linejoin="round" stroke-width="1.0" /><path d="M 377 270 L 378 269 L 502 269 L 508 274 L 508 290 L 507 291 L 505 291 L 502 289 L 367 289 L 366 288 L 366 286 L 371 280 L 373 274 L 376 271" fill="none" stroke="black" stroke-linecap="round" stroke-linejoin="round" stroke-width="1.0" /><path d="M 6 270 L 7 269 L 12 269 L 13 270 L 20 270 L 22 272 L 26 272 L 28 274 L 28 276 L 27 277 L 26 277 L 27 278 L 27 279 L 28 280 L 30 280 L 31 281 L 31 284 L 30 285 L 31 286 L 33 286 L 34 287 L 34 289 L 33 290 L 28 290 L 27 289 L 7 289 L 6 290 L 3 290 L 2 289 L 2 281 L 1 280 L 1 278 L 2 277 L 2 273 L 3 272 L 4 272 L 5 271" fill="none" stroke="black" stroke-linecap="round" stroke-linejoin="round" stroke-width="1.0" /><path d="M 301 264 L 302 263 L 305 263 L 306 264 L 306 267 L 304 269 L 302 269 L 301 270 L 300 270 L 299 271 L 298 271 L 297 272 L 296 272 L 295 273 L 294 273 L 293 274 L 292 274 L 291 275 L 290 275 L 289 276 L 288 276 L 287 277 L 286 277 L 285 278 L 284 278 L 283 279 L 281 279 L 279 281 L 278 281 L 277 282 L 276 282 L 275 283 L 273 283 L 272 284 L 271 284 L 270 285 L 269 285 L 268 286 L 265 286 L 264 285 L 264 283 L 265 282 L 266 282 L 267 281 L 269 281 L 271 279 L 272 279 L 273 278 L 274 278 L 275 277 L 276 277 L 277 276 L 279 276 L 280 275 L 281 275 L 282 274 L 283 274 L 284 273 L 285 273 L 286 272 L 287 272 L 288 271 L 289 271 L 291 269 L 292 269 L 293 268 L 294 268 L 295 267 L 296 267 L 297 266 L 298 266 L 300 264" fill="none" stroke="black" stroke-linecap="round" stroke-linejoin="round" stroke-width="1.0" /><path d="M 353 262 L 354 261 L 358 261 L 359 262 L 359 263 L 360 264 L 360 265 L 361 266 L 361 270 L 360 271 L 359 271 L 358 272 L 357 272 L 356 273 L 354 273 L 353 272 L 353 271 L 352 270 L 352 267 L 353 266 L 353 263" fill="none" stroke="black" stroke-linecap="round" stroke-linejoin="round" stroke-width="1.0" /><path d="M 300 259 L 301 258 L 305 258 L 306 259 L 306 261 L 305 262 L 303 262 L 301 264 L 300 264 L 299 265 L 298 265 L 297 266 L 296 266 L 295 267 L 294 267 L 293 268 L 292 268 L 290 270 L 289 270 L 288 271 L 287 271 L 286 272 L 285 272 L 284 273 L 283 273 L 282 274 L 281 274 L 280 275 L 279 275 L 278 276 L 277 276 L 276 277 L 275 277 L 274 278 L 273 278 L 272 279 L 271 279 L 270 280 L 269 280 L 268 281 L 267 281 L 266 282 L 265 282 L 264 283 L 263 283 L 262 284 L 261 284 L 260 285 L 258 285 L 257 284 L 257 282 L 258 281 L 259 281 L 260 280 L 261 280 L 263 278 L 264 278 L 265 277 L 266 277 L 267 276 L 268 276 L 269 275 L 270 275 L 271 274 L 272 274 L 273 273 L 274 273 L 275 272 L 276 272 L 277 271 L 278 271 L 279 270 L 280 270 L 281 269 L 282 269 L 284 267 L 285 267 L 286 266 L 287 266 L 288 265 L 289 265 L 290 264 L 291 264 L 293 262 L 294 262 L 295 261 L 296 261 L 297 260 L 298 260 L 299 259" fill="none" stroke="black" stroke-linecap="round" stroke-linejoin="round" stroke-width="1.0" /><path d="M 165 251 L 169 250 L 188 268 L 191 292 L 193 292 L 192 286 L 194 282 L 197 283 L 202 292 L 197 323 L 198 350 L 171 349 L 169 323 L 172 297 L 175 289 L 174 282 L 172 282 L 169 309 L 166 310 L 162 267 L 163 308 L 165 326 L 168 331 L 169 349 L 165 349 L 157 316 L 154 314 L 154 303 L 152 303 L 163 349 L 136 349 L 139 318 L 154 264 L 164 252" fill="none" stroke="black" stroke-linecap="round" stroke-linejoin="round" stroke-width="1.0" /><path d="M 334 250 L 337 249 L 346 258 L 356 279 L 360 321 L 365 344 L 364 350 L 361 350 L 359 346 L 357 350 L 336 349 L 346 308 L 344 305 L 336 340 L 332 340 L 335 315 L 338 311 L 345 275 L 344 272 L 337 299 L 334 298 L 333 285 L 331 282 L 330 283 L 333 320 L 328 349 L 306 349 L 306 331 L 300 294 L 301 278 L 304 277 L 306 279 L 309 289 L 312 290 L 312 295 L 308 304 L 311 304 L 314 300 L 318 299 L 322 286 L 322 277 L 318 263 L 333 251" fill="none" stroke="black" stroke-linecap="round" stroke-linejoin="round" stroke-width="1.0" /><path d="M 325 250 L 326 249 L 328 249 L 329 250 L 329 252 L 328 253 L 326 253 L 326 254 L 322 258 L 321 258 L 319 260 L 317 260 L 316 259 L 316 256 L 317 255 L 318 255 L 320 253 L 321 253 L 323 251 L 325 251" fill="none" stroke="black" stroke-linecap="round" stroke-linejoin="round" stroke-width="1.0" /><path d="M 157 248 L 158 247 L 160 247 L 161 248 L 161 255 L 159 257 L 157 257 L 156 256 L 156 250 L 157 249" fill="none" stroke="black" stroke-linecap="round" stroke-linejoin="round" stroke-width="1.0" /><path d="M 176 247 L 177 246 L 179 246 L 187 254 L 188 254 L 190 256 L 190 258 L 189 259 L 186 259 L 176 249 L 176 248" fill="none" stroke="black" stroke-linecap="round" stroke-linejoin="round" stroke-width="1.0" /><path d="M 132 247 L 133 246 L 135 246 L 136 247 L 136 263 L 137 264 L 137 266 L 138 267 L 138 270 L 137 271 L 135 271 L 134 270 L 126 270 L 124 272 L 122 272 L 121 271 L 121 268 L 122 267 L 122 265 L 123 264 L 123 263 L 124 262 L 126 262 L 126 259 L 127 258 L 127 257 L 126 257 L 125 256 L 125 254 L 130 249 L 131 249 L 132 248" fill="none" stroke="black" stroke-linecap="round" stroke-linejoin="round" stroke-width="1.0" /><path d="M 366 243 L 367 242 L 500 242 L 504 244 L 508 252 L 508 270 L 505 271 L 502 269 L 378 269 L 376 270 L 375 272 L 373 272 L 372 271 L 373 265 L 371 264 L 372 259 L 371 257 L 369 256 L 369 253 L 367 252 L 367 250 L 364 249 L 365 244" fill="none" stroke="black" stroke-linecap="round" stroke-linejoin="round" stroke-width="1.0" /><path d="M 6 243 L 7 242 L 13 242 L 14 243 L 14 244 L 15 245 L 15 246 L 17 248 L 17 249 L 18 250 L 20 250 L 21 251 L 21 253 L 22 254 L 22 257 L 21 258 L 20 258 L 20 259 L 22 259 L 23 260 L 23 262 L 24 263 L 24 267 L 23 268 L 23 269 L 22 270 L 20 270 L 19 269 L 18 269 L 17 270 L 13 270 L 12 269 L 7 269 L 6 270 L 3 270 L 2 269 L 2 264 L 1 263 L 1 260 L 2 259 L 2 249 L 3 248 L 4 248 L 4 246 L 5 245 L 5 244" fill="none" stroke="black" stroke-linecap="round" stroke-linejoin="round" stroke-width="1.0" /><path d="M 326 241 L 327 240 L 329 240 L 330 241 L 330 244 L 323 251 L 322 251 L 320 253 L 319 253 L 317 255 L 316 255 L 315 256 L 313 256 L 312 255 L 312 252 L 313 251 L 315 251 L 317 249 L 318 249 L 321 246 L 322 246 L 326 242" fill="none" stroke="black" stroke-linecap="round" stroke-linejoin="round" stroke-width="1.0" /><path d="M 247 241 L 248 240 L 254 240 L 255 241 L 257 241 L 258 242 L 259 242 L 260 243 L 261 243 L 264 246 L 265 246 L 269 250 L 270 250 L 272 252 L 272 256 L 271 257 L 271 258 L 269 260 L 269 261 L 267 263 L 267 264 L 265 266 L 265 267 L 263 269 L 263 270 L 261 272 L 261 273 L 259 275 L 259 276 L 257 279 L 257 281 L 256 282 L 256 283 L 254 285 L 254 287 L 253 288 L 250 288 L 246 284 L 246 283 L 244 281 L 244 280 L 242 278 L 242 276 L 241 275 L 241 274 L 239 272 L 239 271 L 238 270 L 238 269 L 236 267 L 236 266 L 235 265 L 235 264 L 234 263 L 234 262 L 232 260 L 232 259 L 231 258 L 231 257 L 229 254 L 229 250 L 231 248 L 232 248 L 234 246 L 236 246 L 238 244 L 239 244 L 240 243 L 242 243 L 244 241 L 246 241" fill="none" stroke="black" stroke-linecap="round" stroke-linejoin="round" stroke-width="1.0" /><path d="M 302 240 L 303 239 L 305 239 L 306 240 L 306 241 L 307 242 L 307 243 L 308 244 L 308 245 L 309 246 L 309 247 L 310 248 L 310 250 L 312 252 L 312 255 L 313 256 L 314 256 L 315 257 L 315 259 L 316 260 L 316 261 L 318 263 L 318 266 L 319 267 L 319 268 L 320 269 L 320 272 L 321 273 L 321 276 L 322 277 L 322 286 L 321 287 L 321 291 L 320 292 L 320 294 L 319 295 L 317 295 L 316 294 L 315 295 L 313 295 L 312 294 L 312 283 L 311 282 L 311 279 L 310 278 L 310 276 L 309 275 L 309 273 L 308 272 L 308 270 L 306 268 L 306 258 L 305 257 L 304 257 L 303 256 L 303 251 L 302 250 L 302 241" fill="none" stroke="black" stroke-linecap="round" stroke-linejoin="round" stroke-width="1.0" /><path d="M 187 237 L 188 236 L 190 236 L 191 237 L 191 241 L 190 242 L 190 246 L 189 247 L 189 251 L 188 252 L 186 252 L 178 244 L 178 241 L 179 240 L 180 240 L 181 239 L 182 239 L 183 238 L 185 238 L 186 237" fill="none" stroke="black" stroke-linecap="round" stroke-linejoin="round" stroke-width="1.0" /><path d="M 305 235 L 306 234 L 309 234 L 310 235 L 312 235 L 313 236 L 316 236 L 317 237 L 319 237 L 320 238 L 322 238 L 323 239 L 324 239 L 325 240 L 325 242 L 321 246 L 320 246 L 317 249 L 316 249 L 314 251 L 312 251 L 310 249 L 310 248 L 309 247 L 309 245 L 307 243 L 307 242 L 306 241 L 306 240 L 305 239 L 305 236" fill="none" stroke="black" stroke-linecap="round" stroke-linejoin="round" stroke-width="1.0" /><path d="M 277 231 L 278 230 L 280 230 L 281 231 L 281 239 L 280 240 L 280 241 L 278 243 L 276 243 L 275 244 L 274 244 L 274 246 L 275 246 L 276 247 L 276 249 L 275 250 L 273 250 L 272 249 L 272 248 L 271 248 L 268 245 L 267 245 L 264 242 L 263 242 L 262 241 L 262 239 L 263 238 L 264 238 L 265 237 L 266 237 L 267 236 L 268 236 L 269 235 L 270 235 L 272 233 L 273 233 L 274 232 L 275 232 L 276 231" fill="none" stroke="black" stroke-linecap="round" stroke-linejoin="round" stroke-width="1.0" /><path d="M 222 230 L 223 229 L 225 229 L 227 231 L 228 231 L 230 233 L 231 233 L 232 234 L 233 234 L 235 236 L 236 236 L 237 237 L 238 237 L 240 239 L 240 241 L 239 242 L 237 242 L 235 244 L 234 244 L 233 245 L 232 245 L 230 247 L 228 247 L 227 246 L 227 244 L 224 244 L 223 243 L 223 242 L 222 241 L 222 239 L 221 238 L 221 232 L 222 231" fill="none" stroke="black" stroke-linecap="round" stroke-linejoin="round" stroke-width="1.0" /><path d="M 285 226 L 286 225 L 290 225 L 291 226 L 292 226 L 295 229 L 296 229 L 298 231 L 300 231 L 302 233 L 302 250 L 303 251 L 303 256 L 301 258 L 300 258 L 299 259 L 298 259 L 297 260 L 296 260 L 294 262 L 293 262 L 292 263 L 291 263 L 290 264 L 289 264 L 288 265 L 287 265 L 285 267 L 283 267 L 281 269 L 280 269 L 279 270 L 278 270 L 277 271 L 276 271 L 275 272 L 274 272 L 273 273 L 272 273 L 271 274 L 270 274 L 267 276 L 265 276 L 264 275 L 264 272 L 265 271 L 265 270 L 267 268 L 267 267 L 270 264 L 270 263 L 271 262 L 271 261 L 273 259 L 273 258 L 274 257 L 274 256 L 275 255 L 275 254 L 277 252 L 277 251 L 278 250 L 278 249 L 280 246 L 280 243 L 281 242 L 282 242 L 282 240 L 283 239 L 283 228 L 284 227" fill="none" stroke="black" stroke-linecap="round" stroke-linejoin="round" stroke-width="1.0" /><path d="M 213 223 L 214 222 L 216 222 L 220 226 L 220 230 L 219 231 L 219 239 L 220 240 L 220 242 L 221 243 L 221 244 L 222 245 L 222 246 L 223 247 L 224 250 L 226 252 L 226 253 L 227 254 L 227 255 L 228 256 L 228 257 L 229 258 L 230 261 L 232 263 L 232 264 L 233 265 L 233 266 L 234 267 L 235 270 L 239 275 L 239 277 L 238 278 L 236 278 L 235 277 L 233 277 L 232 276 L 230 276 L 229 275 L 227 275 L 226 274 L 224 274 L 223 273 L 221 273 L 220 272 L 218 272 L 215 270 L 213 270 L 212 269 L 211 269 L 209 267 L 207 267 L 205 265 L 202 264 L 200 261 L 200 259 L 199 258 L 199 250 L 198 249 L 198 233 L 200 231 L 201 231 L 202 230 L 204 230 L 206 228 L 207 228 L 212 224" fill="none" stroke="black" stroke-linecap="round" stroke-linejoin="round" stroke-width="1.0" /><path d="M 226 213 L 227 212 L 229 212 L 230 213 L 230 216 L 229 217 L 229 218 L 227 220 L 227 221 L 225 223 L 225 224 L 223 226 L 221 226 L 217 222 L 217 220 L 218 219 L 218 218 L 220 216 L 221 216 L 224 213 L 225 213" fill="none" stroke="black" stroke-linecap="round" stroke-linejoin="round" stroke-width="1.0" /><path d="M 271 212 L 272 211 L 275 211 L 276 212 L 277 212 L 279 214 L 280 214 L 284 218 L 284 219 L 287 222 L 287 224 L 285 226 L 284 226 L 283 227 L 281 227 L 279 225 L 279 224 L 277 222 L 277 221 L 274 218 L 274 217 L 272 217 L 271 216 L 271 213" fill="none" stroke="black" stroke-linecap="round" stroke-linejoin="round" stroke-width="1.0" /><path d="M 364 206 L 365 205 L 368 205 L 371 208 L 371 209 L 372 210 L 372 211 L 373 212 L 373 213 L 374 214 L 374 215 L 375 216 L 375 218 L 374 219 L 372 219 L 371 218 L 371 217 L 371 220 L 370 221 L 368 221 L 367 220 L 367 215 L 366 214 L 366 211 L 365 210 L 365 209 L 364 208 L 364 207" fill="none" stroke="black" stroke-linecap="round" stroke-linejoin="round" stroke-width="1.0" /><path d="M 233 201 L 234 200 L 237 200 L 238 201 L 238 202 L 239 202 L 242 204 L 244 204 L 246 206 L 249 206 L 250 207 L 250 208 L 252 208 L 252 206 L 253 205 L 257 205 L 258 204 L 260 204 L 261 203 L 264 203 L 265 202 L 267 202 L 268 201 L 270 201 L 271 202 L 271 211 L 270 212 L 270 213 L 271 214 L 271 217 L 273 217 L 275 219 L 275 220 L 278 223 L 278 224 L 280 226 L 280 228 L 278 230 L 277 230 L 276 231 L 275 231 L 274 232 L 271 233 L 269 235 L 268 235 L 267 236 L 266 236 L 265 237 L 264 237 L 263 238 L 260 239 L 260 240 L 259 241 L 255 241 L 254 240 L 248 240 L 247 241 L 244 241 L 243 240 L 243 239 L 241 239 L 239 237 L 236 236 L 234 234 L 231 233 L 229 231 L 228 231 L 226 229 L 225 229 L 224 228 L 224 225 L 226 223 L 226 222 L 228 220 L 228 219 L 232 215 L 233 215 L 233 202" fill="none" stroke="black" stroke-linecap="round" stroke-linejoin="round" stroke-width="1.0" /><path d="M 65 201 L 65 205 L 64 206 L 62 206 L 62 208 L 64 210 L 64 214 L 63 215 L 63 221 L 64 222 L 64 223 L 66 223 L 67 222 L 73 222 L 74 223 L 74 225 L 73 226 L 70 226 L 68 228 L 68 229 L 69 230 L 71 230 L 72 229 L 74 229 L 75 230 L 75 232 L 73 234 L 73 235 L 72 236 L 72 242 L 71 243 L 71 245 L 72 246 L 75 246 L 75 243 L 74 242 L 74 239 L 78 233 L 78 228 L 75 225 L 75 223 L 76 222 L 79 222 L 80 221 L 84 221 L 84 219 L 83 218 L 83 209 L 84 208 L 84 206 L 83 206 L 82 205 L 82 202 L 78 202 L 77 201 L 75 201 L 75 202 L 74 203 L 74 204 L 73 205 L 71 205 L 69 202 L 68 202 L 67 201 L 66 201" fill="none" stroke="black" stroke-linecap="round" stroke-linejoin="round" stroke-width="1.0" /><path d="M 304 200 L 305 199 L 309 199 L 310 200 L 310 202 L 309 203 L 309 206 L 308 207 L 308 209 L 307 210 L 307 211 L 306 212 L 306 216 L 304 218 L 302 218 L 301 217 L 301 213 L 302 212 L 302 207 L 303 206 L 303 201" fill="none" stroke="black" stroke-linecap="round" stroke-linejoin="round" stroke-width="1.0" /><path d="M 309 195 L 308 196 L 307 196 L 303 200 L 303 206 L 302 207 L 302 212 L 301 213 L 301 217 L 302 218 L 302 222 L 302 220 L 303 219 L 305 219 L 305 217 L 306 216 L 306 213 L 307 212 L 307 210 L 308 209 L 308 207 L 309 206 L 309 203 L 310 202 L 310 200 L 311 199 L 311 196 L 310 195" fill="none" stroke="black" stroke-linecap="round" stroke-linejoin="round" stroke-width="1.0" /><path d="M 316 180 L 317 179 L 319 179 L 320 180 L 320 192 L 321 193 L 321 202 L 322 203 L 322 209 L 323 210 L 323 214 L 324 215 L 324 218 L 323 219 L 323 220 L 320 223 L 320 226 L 322 229 L 322 231 L 321 232 L 321 236 L 320 237 L 317 237 L 316 236 L 313 236 L 312 235 L 310 235 L 309 234 L 307 234 L 306 233 L 303 233 L 302 232 L 299 231 L 297 229 L 296 229 L 293 226 L 292 226 L 284 218 L 284 217 L 281 214 L 280 214 L 278 212 L 276 212 L 275 211 L 273 211 L 271 209 L 271 201 L 272 200 L 273 200 L 276 198 L 278 198 L 281 196 L 283 196 L 284 195 L 285 195 L 286 194 L 287 194 L 288 193 L 289 193 L 290 192 L 295 190 L 297 188 L 298 188 L 304 182 L 306 182 L 307 183 L 311 183 L 313 181 L 314 181 L 315 180" fill="none" stroke="black" stroke-linecap="round" stroke-linejoin="round" stroke-width="1.0" /><path d="M 330 179 L 330 180 L 329 181 L 329 187 L 331 187 L 331 186 L 333 184 L 333 182 L 335 180 L 335 179 L 334 180 L 334 181 L 333 182 L 331 182 L 330 181 L 330 180" fill="none" stroke="black" stroke-linecap="round" stroke-linejoin="round" stroke-width="1.0" /><path d="M 194 179 L 195 178 L 197 178 L 204 185 L 204 191 L 203 192 L 203 196 L 202 197 L 202 200 L 201 201 L 199 201 L 197 199 L 197 193 L 196 192 L 196 186 L 195 185 L 195 182 L 194 181 L 194 180" fill="none" stroke="black" stroke-linecap="round" stroke-linejoin="round" stroke-width="1.0" /><path d="M 195 178 L 194 179 L 194 181 L 195 182 L 195 185 L 196 186 L 196 192 L 197 193 L 197 205 L 198 206 L 198 207 L 200 207 L 200 205 L 201 204 L 201 201 L 202 200 L 202 197 L 203 196 L 203 192 L 204 191 L 204 184 L 199 179 L 198 179 L 197 178 L 196 178" fill="none" stroke="black" stroke-linecap="round" stroke-linejoin="round" stroke-width="1.0" /><path d="M 190 164 L 193 163 L 200 169 L 208 170 L 212 178 L 233 197 L 233 210 L 222 214 L 209 226 L 198 232 L 198 249 L 200 259 L 199 265 L 200 270 L 200 266 L 204 265 L 215 271 L 235 277 L 238 279 L 242 279 L 245 283 L 244 286 L 221 279 L 204 271 L 202 271 L 203 276 L 202 280 L 200 280 L 198 278 L 194 278 L 193 284 L 192 285 L 189 284 L 188 261 L 190 258 L 189 247 L 191 241 L 191 236 L 188 236 L 178 241 L 175 240 L 175 237 L 183 211 L 190 165" fill="none" stroke="black" stroke-linecap="round" stroke-linejoin="round" stroke-width="1.0" /><path d="M 433 159 L 434 158 L 436 158 L 438 160 L 438 162 L 437 163 L 434 163 L 434 166 L 433 167 L 431 167 L 430 166 L 430 161 L 431 160 L 432 160" fill="none" stroke="black" stroke-linecap="round" stroke-linejoin="round" stroke-width="1.0" /><path d="M 434 154 L 434 156 L 433 157 L 433 158 L 431 160 L 427 160 L 426 161 L 427 162 L 427 163 L 429 163 L 430 164 L 430 167 L 432 169 L 432 171 L 431 172 L 428 172 L 428 175 L 430 175 L 431 174 L 433 174 L 434 173 L 436 173 L 437 172 L 439 172 L 440 173 L 441 173 L 443 175 L 445 175 L 446 174 L 446 172 L 445 171 L 444 171 L 443 170 L 442 170 L 441 169 L 441 167 L 442 166 L 442 164 L 444 162 L 447 162 L 448 161 L 448 160 L 446 160 L 445 159 L 444 159 L 443 158 L 441 158 L 440 159 L 438 159 L 437 158 L 437 154 L 435 154" fill="none" stroke="black" stroke-linecap="round" stroke-linejoin="round" stroke-width="1.0" /><path d="M 7 150 L 8 149 L 36 149 L 37 150 L 37 152 L 34 158 L 35 163 L 32 167 L 28 175 L 27 180 L 24 186 L 24 189 L 22 193 L 22 197 L 21 198 L 21 201 L 20 202 L 20 208 L 19 209 L 19 219 L 18 220 L 18 232 L 19 233 L 19 243 L 20 244 L 20 247 L 19 248 L 17 248 L 13 242 L 7 242 L 4 246 L 2 246 L 1 245 L 1 235 L 2 234 L 2 211 L 3 210 L 1 209 L 1 176 L 2 175 L 2 167 L 3 166 L 4 152 L 6 150" fill="none" stroke="black" stroke-linecap="round" stroke-linejoin="round" stroke-width="1.0" /><path d="M 210 149 L 211 148 L 214 148 L 217 150 L 219 150 L 226 153 L 230 153 L 231 154 L 244 154 L 245 153 L 250 153 L 251 152 L 259 152 L 260 153 L 260 155 L 261 153 L 265 153 L 274 158 L 280 159 L 281 160 L 295 161 L 296 160 L 304 160 L 305 159 L 309 159 L 311 161 L 311 163 L 302 178 L 302 183 L 297 188 L 291 192 L 289 192 L 287 194 L 283 196 L 281 196 L 278 198 L 276 198 L 273 200 L 271 200 L 264 203 L 261 203 L 257 205 L 249 205 L 229 193 L 212 177 L 207 167 L 207 164 L 208 163 L 212 164 L 212 162 L 210 158 L 210 155 L 209 154 L 209 150" fill="none" stroke="black" stroke-linecap="round" stroke-linejoin="round" stroke-width="1.0" /><path d="M 109 149 L 110 148 L 112 148 L 113 149 L 173 149 L 174 150 L 176 150 L 178 152 L 177 178 L 176 179 L 176 188 L 175 189 L 175 193 L 174 194 L 175 200 L 170 210 L 165 217 L 160 222 L 160 223 L 149 233 L 148 233 L 143 238 L 139 244 L 135 244 L 134 246 L 131 246 L 130 247 L 128 247 L 127 246 L 127 241 L 128 240 L 128 211 L 127 210 L 126 199 L 125 198 L 123 187 L 122 186 L 121 181 L 119 178 L 119 176 L 113 164 L 111 162 L 111 160 L 113 159 L 111 156 L 111 154 L 109 150" fill="none" stroke="black" stroke-linecap="round" stroke-linejoin="round" stroke-width="1.0" /><path d="M 306 140 L 307 139 L 309 139 L 310 140 L 313 140 L 314 141 L 314 143 L 313 144 L 313 146 L 308 151 L 306 151 L 305 150 L 305 145 L 306 144 L 306 141" fill="none" stroke="black" stroke-linecap="round" stroke-linejoin="round" stroke-width="1.0" /><path d="M 68 139 L 78 138 L 86 140 L 96 146 L 109 159 L 121 181 L 128 211 L 128 240 L 127 241 L 128 250 L 125 254 L 124 261 L 119 275 L 109 292 L 99 303 L 87 311 L 80 313 L 67 313 L 60 311 L 50 305 L 39 294 L 26 271 L 20 249 L 18 232 L 20 202 L 29 173 L 37 160 L 48 148 L 61 140 L 67 139" fill="none" stroke="black" stroke-linecap="round" stroke-linejoin="round" stroke-width="1.0" /><path d="M 318 133 L 319 132 L 321 132 L 322 133 L 322 136 L 321 137 L 321 138 L 320 139 L 320 140 L 317 143 L 315 143 L 314 142 L 314 140 L 315 139 L 315 136 L 316 135 L 318 135 L 318 134" fill="none" stroke="black" stroke-linecap="round" stroke-linejoin="round" stroke-width="1.0" /><path d="M 435 132 L 434 133 L 432 133 L 431 134 L 430 134 L 429 135 L 429 136 L 428 137 L 428 138 L 427 139 L 427 144 L 428 145 L 428 146 L 429 147 L 433 147 L 436 144 L 436 142 L 437 141 L 437 140 L 438 139 L 438 137 L 439 136 L 441 136 L 443 138 L 443 142 L 442 143 L 442 144 L 440 146 L 439 146 L 439 148 L 440 149 L 441 148 L 443 148 L 446 145 L 446 142 L 447 141 L 447 139 L 446 138 L 446 136 L 445 135 L 445 134 L 444 134 L 443 133 L 442 133 L 441 132 L 436 132" fill="none" stroke="black" stroke-linecap="round" stroke-linejoin="round" stroke-width="1.0" /><path d="M 305 129 L 306 128 L 308 128 L 314 134 L 314 135 L 315 136 L 315 139 L 314 140 L 310 140 L 309 139 L 307 139 L 306 138 L 306 132 L 305 131 L 305 130" fill="none" stroke="black" stroke-linecap="round" stroke-linejoin="round" stroke-width="1.0" /><path d="M 276 128 L 277 127 L 280 128 L 280 138 L 279 139 L 280 140 L 280 145 L 281 147 L 285 147 L 285 145 L 288 141 L 290 141 L 292 144 L 301 143 L 303 146 L 302 152 L 304 153 L 309 151 L 313 146 L 315 146 L 316 149 L 314 153 L 314 156 L 313 157 L 309 157 L 307 159 L 304 159 L 303 160 L 291 161 L 290 160 L 278 159 L 264 152 L 250 152 L 243 154 L 232 154 L 218 150 L 215 148 L 213 148 L 211 146 L 208 146 L 206 141 L 206 133 L 207 132 L 209 132 L 213 139 L 217 142 L 218 141 L 218 137 L 221 133 L 224 133 L 225 135 L 235 134 L 238 138 L 238 140 L 233 146 L 235 144 L 238 144 L 245 136 L 247 136 L 249 140 L 250 137 L 253 136 L 259 145 L 262 148 L 264 148 L 269 137 L 270 131 L 276 129" fill="none" stroke="black" stroke-linecap="round" stroke-linejoin="round" stroke-width="1.0" /><path d="M 240 127 L 241 126 L 243 126 L 244 127 L 244 128 L 245 129 L 245 134 L 244 135 L 244 136 L 243 137 L 243 138 L 242 139 L 240 139 L 239 138 L 239 136 L 240 135 L 240 128" fill="none" stroke="black" stroke-linecap="round" stroke-linejoin="round" stroke-width="1.0" /><path d="M 291 126 L 292 125 L 297 125 L 298 126 L 301 126 L 305 130 L 305 131 L 306 132 L 306 142 L 305 143 L 302 143 L 301 142 L 299 142 L 297 144 L 293 144 L 291 142 L 291 141 L 287 141 L 286 142 L 284 142 L 283 141 L 283 134 L 285 132 L 285 131 L 290 126" fill="none" stroke="black" stroke-linecap="round" stroke-linejoin="round" stroke-width="1.0" /><path d="M 282 125 L 283 124 L 287 124 L 288 125 L 288 127 L 285 130 L 285 131 L 284 132 L 282 132 L 281 131 L 281 129 L 280 128 L 280 126 L 281 125" fill="none" stroke="black" stroke-linecap="round" stroke-linejoin="round" stroke-width="1.0" /><path d="M 210 120 L 211 119 L 213 119 L 214 120 L 217 120 L 218 121 L 218 124 L 217 125 L 217 138 L 216 139 L 214 139 L 213 138 L 213 137 L 210 134 L 210 133 L 209 132 L 209 130 L 208 129 L 208 122 L 209 121" fill="none" stroke="black" stroke-linecap="round" stroke-linejoin="round" stroke-width="1.0" /><path d="M 287 119 L 288 118 L 293 118 L 294 119 L 294 124 L 293 125 L 291 125 L 290 124 L 283 124 L 282 125 L 281 125 L 280 126 L 279 126 L 278 127 L 275 127 L 274 126 L 274 122 L 275 121 L 277 121 L 278 120 L 282 120 L 283 119 L 286 119" fill="none" stroke="black" stroke-linecap="round" stroke-linejoin="round" stroke-width="1.0" /><path d="M 433 117 L 434 116 L 437 116 L 438 117 L 438 119 L 440 119 L 441 120 L 441 122 L 440 123 L 437 123 L 436 122 L 435 122 L 433 120 L 433 118" fill="none" stroke="black" stroke-linecap="round" stroke-linejoin="round" stroke-width="1.0" /><path d="M 224 117 L 225 116 L 231 116 L 232 117 L 234 117 L 239 122 L 239 123 L 240 124 L 240 135 L 239 136 L 237 136 L 236 135 L 236 134 L 235 133 L 233 133 L 231 135 L 226 135 L 225 134 L 225 133 L 224 132 L 222 132 L 221 133 L 218 133 L 217 132 L 217 125 L 218 124 L 218 123 L 223 118" fill="none" stroke="black" stroke-linecap="round" stroke-linejoin="round" stroke-width="1.0" /><path d="M 202 117 L 203 116 L 206 116 L 207 117 L 207 118 L 208 119 L 208 121 L 207 122 L 207 123 L 208 124 L 208 128 L 207 129 L 204 129 L 203 128 L 203 124 L 202 123 L 202 118" fill="none" stroke="black" stroke-linecap="round" stroke-linejoin="round" stroke-width="1.0" /><path d="M 234 112 L 235 111 L 238 111 L 239 112 L 242 112 L 243 113 L 248 113 L 249 114 L 249 115 L 250 116 L 250 117 L 251 118 L 251 123 L 249 125 L 249 126 L 248 127 L 248 128 L 249 129 L 249 132 L 248 133 L 246 133 L 245 132 L 245 129 L 244 128 L 244 125 L 243 124 L 243 122 L 242 121 L 242 118 L 241 118 L 240 117 L 237 117 L 236 116 L 235 116 L 234 115 L 234 113" fill="none" stroke="black" stroke-linecap="round" stroke-linejoin="round" stroke-width="1.0" /><path d="M 223 109 L 224 108 L 226 108 L 228 110 L 228 113 L 227 114 L 219 114 L 218 115 L 217 115 L 216 116 L 215 116 L 214 117 L 213 117 L 211 119 L 208 119 L 207 118 L 207 115 L 209 113 L 210 113 L 211 112 L 213 112 L 214 111 L 216 111 L 217 110 L 218 110 L 219 109 L 222 109" fill="none" stroke="black" stroke-linecap="round" stroke-linejoin="round" stroke-width="1.0" /><path d="M 434 108 L 435 107 L 438 107 L 440 109 L 440 112 L 441 112 L 442 113 L 442 115 L 441 116 L 437 116 L 436 115 L 436 111 L 435 111 L 434 110 L 434 109" fill="none" stroke="black" stroke-linecap="round" stroke-linejoin="round" stroke-width="1.0" /><path d="M 434 105 L 434 108 L 433 109 L 430 109 L 430 112 L 431 112 L 432 113 L 432 115 L 431 116 L 432 117 L 432 120 L 431 121 L 431 123 L 433 125 L 435 125 L 436 126 L 441 126 L 441 120 L 442 119 L 443 119 L 443 115 L 444 114 L 444 112 L 443 112 L 442 111 L 442 107 L 438 107 L 436 105 L 435 105" fill="none" stroke="black" stroke-linecap="round" stroke-linejoin="round" stroke-width="1.0" /><path d="M 283 100 L 284 99 L 286 99 L 288 101 L 288 102 L 290 104 L 290 106 L 291 107 L 291 108 L 292 109 L 292 112 L 290 114 L 291 115 L 291 117 L 290 118 L 288 118 L 287 119 L 283 119 L 282 118 L 282 117 L 281 117 L 280 116 L 280 113 L 281 112 L 281 106 L 282 105 L 282 102 L 283 101" fill="none" stroke="black" stroke-linecap="round" stroke-linejoin="round" stroke-width="1.0" /><path d="M 217 93 L 218 92 L 220 92 L 221 93 L 221 107 L 218 110 L 214 110 L 213 109 L 213 104 L 214 103 L 214 101 L 215 100 L 215 99 L 216 98 L 216 95 L 217 94" fill="none" stroke="black" stroke-linecap="round" stroke-linejoin="round" stroke-width="1.0" /><path d="M 236 88 L 237 87 L 240 87 L 241 88 L 241 92 L 240 93 L 240 105 L 239 106 L 232 106 L 231 105 L 230 105 L 229 104 L 229 102 L 230 101 L 230 99 L 231 98 L 231 97 L 232 96 L 232 95 L 233 94 L 233 93 L 234 92 L 234 91 L 235 90 L 235 89" fill="none" stroke="black" stroke-linecap="round" stroke-linejoin="round" stroke-width="1.0" /><path d="M 439 85 L 438 86 L 435 86 L 434 87 L 432 87 L 432 89 L 436 89 L 437 88 L 443 88 L 444 89 L 444 91 L 442 93 L 441 93 L 440 94 L 439 94 L 439 96 L 442 96 L 443 95 L 444 95 L 445 94 L 446 94 L 446 93 L 447 92 L 447 88 L 446 87 L 446 86 L 444 86 L 443 85 L 440 85" fill="none" stroke="black" stroke-linecap="round" stroke-linejoin="round" stroke-width="1.0" /><path d="M 185 71 L 186 70 L 188 70 L 189 71 L 189 73 L 188 74 L 188 75 L 187 76 L 187 78 L 186 79 L 186 82 L 185 83 L 185 85 L 184 86 L 184 88 L 183 89 L 183 90 L 182 91 L 182 92 L 181 93 L 181 96 L 180 97 L 180 99 L 179 100 L 179 102 L 177 104 L 175 104 L 174 103 L 174 97 L 175 96 L 177 96 L 177 92 L 178 91 L 178 89 L 179 88 L 179 86 L 180 85 L 180 83 L 181 82 L 181 80 L 182 79 L 182 78 L 183 77 L 183 75 L 184 74 L 184 73 L 185 72" fill="none" stroke="black" stroke-linecap="round" stroke-linejoin="round" stroke-width="1.0" /><path d="M 432 70 L 432 74 L 434 76 L 436 76 L 437 77 L 441 77 L 441 74 L 438 74 L 437 73 L 436 73 L 435 72 L 435 71 L 434 71 L 433 70" fill="none" stroke="black" stroke-linecap="round" stroke-linejoin="round" stroke-width="1.0" /><path d="M 213 70 L 217 70 L 216 77 L 221 76 L 223 82 L 216 95 L 212 111 L 208 112 L 206 109 L 205 115 L 202 116 L 201 120 L 203 130 L 206 131 L 206 141 L 210 155 L 209 159 L 205 159 L 207 168 L 199 168 L 190 156 L 186 195 L 179 227 L 172 244 L 166 250 L 162 251 L 163 240 L 161 240 L 155 251 L 152 263 L 153 270 L 147 289 L 145 291 L 140 289 L 114 290 L 113 286 L 117 284 L 121 275 L 127 270 L 136 271 L 143 280 L 136 262 L 136 249 L 143 239 L 165 218 L 179 192 L 176 192 L 175 189 L 176 179 L 178 177 L 178 124 L 181 123 L 181 114 L 181 121 L 178 122 L 176 106 L 182 98 L 184 88 L 187 89 L 188 96 L 202 88 L 212 71" fill="none" stroke="black" stroke-linecap="round" stroke-linejoin="round" stroke-width="1.0" /><path d="M 305 66 L 305 70 L 306 71 L 306 72 L 307 73 L 307 75 L 308 76 L 308 77 L 309 78 L 309 79 L 311 79 L 311 77 L 310 76 L 310 73 L 309 72 L 309 71 L 308 70 L 308 68 L 307 67 L 307 66 L 306 66" fill="none" stroke="black" stroke-linecap="round" stroke-linejoin="round" stroke-width="1.0" /><path d="M 271 63 L 271 71 L 272 72 L 272 75 L 273 76 L 275 74 L 275 65 L 274 64 L 274 63 L 272 63" fill="none" stroke="black" stroke-linecap="round" stroke-linejoin="round" stroke-width="1.0" /><path d="M 241 61 L 239 63 L 238 63 L 237 64 L 237 65 L 236 66 L 236 67 L 235 68 L 235 69 L 234 70 L 234 72 L 236 72 L 236 71 L 239 68 L 239 67 L 241 65 L 241 64 L 242 63 L 242 61" fill="none" stroke="black" stroke-linecap="round" stroke-linejoin="round" stroke-width="1.0" /><path d="M 434 57 L 434 58 L 435 59 L 435 61 L 434 62 L 431 62 L 430 63 L 428 63 L 428 64 L 429 65 L 436 65 L 437 66 L 437 69 L 440 69 L 441 70 L 443 70 L 443 64 L 445 62 L 445 60 L 439 60 L 438 59 L 438 58 L 437 57 L 435 57" fill="none" stroke="black" stroke-linecap="round" stroke-linejoin="round" stroke-width="1.0" /><path d="M 297 39 L 307 55 L 316 80 L 314 85 L 311 86 L 300 77 L 293 76 L 287 71 L 283 60 L 288 73 L 293 76 L 300 77 L 302 80 L 305 81 L 312 87 L 314 87 L 315 81 L 318 80 L 319 84 L 323 89 L 325 96 L 340 116 L 341 104 L 344 103 L 346 105 L 347 113 L 346 117 L 347 115 L 346 106 L 348 103 L 352 102 L 352 97 L 347 92 L 344 85 L 341 83 L 338 72 L 336 72 L 335 70 L 342 96 L 341 112 L 340 113 L 338 113 L 334 107 L 330 104 L 328 98 L 324 94 L 323 89 L 319 83 L 315 68 L 313 66 L 306 48 L 301 41 L 298 39" fill="none" stroke="black" stroke-linecap="round" stroke-linejoin="round" stroke-width="1.0" /><path d="M 432 23 L 441 22 L 455 27 L 461 31 L 475 46 L 484 62 L 489 76 L 494 107 L 494 124 L 491 146 L 486 163 L 479 178 L 466 195 L 452 205 L 443 208 L 431 208 L 415 201 L 405 192 L 392 173 L 386 156 L 370 155 L 371 152 L 383 147 L 380 126 L 380 105 L 383 84 L 390 62 L 399 46 L 413 31 L 425 24 L 431 23" fill="none" stroke="black" stroke-linecap="round" stroke-linejoin="round" stroke-width="1.0" /><path d="M 272 21 L 299 25 L 315 33 L 340 62 L 353 93 L 364 96 L 371 107 L 355 179 L 348 159 L 352 109 L 344 126 L 340 160 L 343 226 L 370 259 L 372 271 L 367 285 L 363 284 L 357 258 L 350 253 L 349 262 L 328 238 L 322 238 L 320 176 L 312 182 L 311 177 L 303 179 L 322 132 L 311 122 L 303 104 L 303 116 L 310 127 L 297 123 L 297 114 L 284 89 L 278 120 L 273 118 L 269 124 L 261 108 L 271 126 L 264 147 L 251 131 L 248 112 L 240 111 L 241 81 L 229 105 L 221 106 L 225 81 L 222 73 L 234 55 L 220 76 L 216 75 L 218 65 L 244 34 L 224 51 L 203 86 L 193 94 L 187 93 L 187 83 L 198 59 L 195 56 L 209 40 L 241 24 L 271 21" fill="none" stroke="black" stroke-linecap="round" stroke-linejoin="round" stroke-width="1.0" /><path d="M 279 18 L 280 17 L 291 17 L 292 18 L 296 18 L 297 19 L 300 19 L 301 20 L 303 20 L 304 21 L 311 24 L 313 26 L 314 26 L 316 28 L 317 28 L 321 32 L 322 32 L 333 43 L 333 44 L 338 49 L 338 50 L 344 58 L 344 59 L 345 60 L 346 63 L 348 65 L 348 67 L 350 70 L 350 72 L 351 73 L 351 75 L 352 76 L 352 78 L 353 79 L 353 82 L 352 83 L 350 83 L 349 82 L 349 80 L 348 79 L 348 78 L 347 77 L 347 75 L 343 68 L 343 66 L 341 64 L 340 61 L 338 59 L 338 58 L 336 56 L 336 55 L 327 45 L 327 44 L 316 33 L 315 33 L 313 31 L 312 31 L 307 28 L 305 28 L 303 26 L 301 26 L 300 25 L 296 25 L 295 24 L 292 24 L 291 23 L 288 23 L 287 22 L 283 22 L 282 21 L 280 21 L 279 20 L 279 19" fill="none" stroke="black" stroke-linecap="round" stroke-linejoin="round" stroke-width="1.0" /><path d="M 256 15 L 257 14 L 261 14 L 262 15 L 269 15 L 270 16 L 273 16 L 274 17 L 274 19 L 272 21 L 258 21 L 257 22 L 249 22 L 248 23 L 241 24 L 240 25 L 238 25 L 231 28 L 228 28 L 226 30 L 221 31 L 219 33 L 216 34 L 209 40 L 208 40 L 199 49 L 199 50 L 191 60 L 190 63 L 185 70 L 181 81 L 180 82 L 178 82 L 177 81 L 177 79 L 178 78 L 179 73 L 181 70 L 181 68 L 184 62 L 186 60 L 187 57 L 189 55 L 191 51 L 195 47 L 195 46 L 207 34 L 208 34 L 211 31 L 217 28 L 219 26 L 229 21 L 231 21 L 234 19 L 236 19 L 240 17 L 243 17 L 244 16 L 247 16 L 248 15 L 255 15" fill="none" stroke="black" stroke-linecap="round" stroke-linejoin="round" stroke-width="1.0" /><path d="M 257 14 L 218 26 L 187 56 L 174 93 L 177 150 L 111 147 L 108 157 L 86 140 L 69 138 L 38 158 L 38 149 L 4 152 L 2 351 L 509 351 L 509 251 L 503 243 L 362 246 L 343 225 L 341 196 L 348 189 L 361 198 L 368 224 L 376 220 L 362 193 L 341 193 L 349 120 L 354 184 L 359 156 L 385 156 L 401 188 L 424 206 L 450 206 L 473 188 L 494 124 L 491 84 L 475 45 L 441 22 L 412 31 L 385 76 L 383 146 L 361 155 L 371 101 L 368 93 L 355 91 L 338 48 L 303 20 L 258 14" fill="none" stroke="black" stroke-linecap="round" stroke-linejoin="round" stroke-width="1.0" /></svg>